<mxfile host="app.diagrams.net" agent="Mozilla/5.0 (Windows NT 10.0; Win64; x64) AppleWebKit/537.36 (KHTML, like Gecko) Chrome/135.0.0.0 Safari/537.36 Edg/135.0.0.0" version="26.2.9">
  <diagram name="第 1 页" id="wsp8Yvg1jHWmFS6PNHOk">
    <mxGraphModel dx="2266" dy="929" grid="0" gridSize="10" guides="1" tooltips="1" connect="1" arrows="1" fold="1" page="0" pageScale="1" pageWidth="827" pageHeight="1169" math="0" shadow="0">
      <root>
        <mxCell id="0" />
        <mxCell id="1" parent="0" />
        <mxCell id="AUQmLrCDsajhmI_0LVjG-3" style="edgeStyle=orthogonalEdgeStyle;rounded=0;orthogonalLoop=1;jettySize=auto;html=1;exitX=0.5;exitY=1;exitDx=0;exitDy=0;entryX=0.5;entryY=0;entryDx=0;entryDy=0;" edge="1" parent="1" source="AUQmLrCDsajhmI_0LVjG-1" target="AUQmLrCDsajhmI_0LVjG-2">
          <mxGeometry relative="1" as="geometry" />
        </mxCell>
        <mxCell id="AUQmLrCDsajhmI_0LVjG-1" value="&lt;font style=&quot;font-size: 18px;&quot;&gt;开始&lt;/font&gt;" style="rounded=1;whiteSpace=wrap;html=1;" vertex="1" parent="1">
          <mxGeometry x="294" y="40" width="96" height="40" as="geometry" />
        </mxCell>
        <mxCell id="AUQmLrCDsajhmI_0LVjG-5" style="edgeStyle=orthogonalEdgeStyle;rounded=0;orthogonalLoop=1;jettySize=auto;html=1;exitX=1;exitY=0.5;exitDx=0;exitDy=0;entryX=0;entryY=0.5;entryDx=0;entryDy=0;" edge="1" parent="1" source="AUQmLrCDsajhmI_0LVjG-2" target="AUQmLrCDsajhmI_0LVjG-4">
          <mxGeometry relative="1" as="geometry" />
        </mxCell>
        <mxCell id="AUQmLrCDsajhmI_0LVjG-11" value="&lt;font style=&quot;font-size: 16px;&quot;&gt;是&lt;/font&gt;" style="edgeLabel;html=1;align=center;verticalAlign=middle;resizable=0;points=[];" vertex="1" connectable="0" parent="AUQmLrCDsajhmI_0LVjG-5">
          <mxGeometry x="0.0027" y="1" relative="1" as="geometry">
            <mxPoint as="offset" />
          </mxGeometry>
        </mxCell>
        <mxCell id="AUQmLrCDsajhmI_0LVjG-7" style="edgeStyle=orthogonalEdgeStyle;rounded=0;orthogonalLoop=1;jettySize=auto;html=1;exitX=0;exitY=0.5;exitDx=0;exitDy=0;entryX=1;entryY=0.5;entryDx=0;entryDy=0;" edge="1" parent="1" source="AUQmLrCDsajhmI_0LVjG-2" target="AUQmLrCDsajhmI_0LVjG-6">
          <mxGeometry relative="1" as="geometry" />
        </mxCell>
        <mxCell id="AUQmLrCDsajhmI_0LVjG-10" value="&lt;font style=&quot;font-size: 16px;&quot;&gt;否&lt;/font&gt;" style="edgeLabel;html=1;align=center;verticalAlign=middle;resizable=0;points=[];" vertex="1" connectable="0" parent="AUQmLrCDsajhmI_0LVjG-7">
          <mxGeometry x="-0.0188" y="1" relative="1" as="geometry">
            <mxPoint as="offset" />
          </mxGeometry>
        </mxCell>
        <mxCell id="AUQmLrCDsajhmI_0LVjG-2" value="&lt;font style=&quot;font-size: 18px;&quot;&gt;起点/目标点有效？&lt;/font&gt;" style="rhombus;whiteSpace=wrap;html=1;" vertex="1" parent="1">
          <mxGeometry x="247" y="130" width="190" height="80" as="geometry" />
        </mxCell>
        <mxCell id="AUQmLrCDsajhmI_0LVjG-13" style="edgeStyle=orthogonalEdgeStyle;rounded=0;orthogonalLoop=1;jettySize=auto;html=1;exitX=1;exitY=0.5;exitDx=0;exitDy=0;entryX=0;entryY=0.5;entryDx=0;entryDy=0;" edge="1" parent="1" source="AUQmLrCDsajhmI_0LVjG-4" target="AUQmLrCDsajhmI_0LVjG-12">
          <mxGeometry relative="1" as="geometry" />
        </mxCell>
        <mxCell id="AUQmLrCDsajhmI_0LVjG-14" value="&lt;font style=&quot;font-size: 16px;&quot;&gt;否&lt;/font&gt;" style="edgeLabel;html=1;align=center;verticalAlign=middle;resizable=0;points=[];" vertex="1" connectable="0" parent="AUQmLrCDsajhmI_0LVjG-13">
          <mxGeometry x="-0.0507" y="1" relative="1" as="geometry">
            <mxPoint as="offset" />
          </mxGeometry>
        </mxCell>
        <mxCell id="AUQmLrCDsajhmI_0LVjG-15" style="edgeStyle=orthogonalEdgeStyle;rounded=0;orthogonalLoop=1;jettySize=auto;html=1;exitX=0.5;exitY=1;exitDx=0;exitDy=0;entryX=0.5;entryY=1;entryDx=0;entryDy=0;" edge="1" parent="1" source="AUQmLrCDsajhmI_0LVjG-4" target="AUQmLrCDsajhmI_0LVjG-6">
          <mxGeometry relative="1" as="geometry" />
        </mxCell>
        <mxCell id="AUQmLrCDsajhmI_0LVjG-16" value="&lt;font style=&quot;font-size: 16px;&quot;&gt;是&lt;/font&gt;" style="edgeLabel;html=1;align=center;verticalAlign=middle;resizable=0;points=[];" vertex="1" connectable="0" parent="AUQmLrCDsajhmI_0LVjG-15">
          <mxGeometry x="-0.0338" relative="1" as="geometry">
            <mxPoint as="offset" />
          </mxGeometry>
        </mxCell>
        <mxCell id="AUQmLrCDsajhmI_0LVjG-4" value="&lt;span style=&quot;font-size: 18px;&quot;&gt;起点=目标点？&lt;/span&gt;" style="rhombus;whiteSpace=wrap;html=1;" vertex="1" parent="1">
          <mxGeometry x="510" y="130" width="190" height="80" as="geometry" />
        </mxCell>
        <mxCell id="AUQmLrCDsajhmI_0LVjG-6" value="&lt;font style=&quot;font-size: 18px;&quot;&gt;返回起点&lt;/font&gt;" style="rounded=0;whiteSpace=wrap;html=1;" vertex="1" parent="1">
          <mxGeometry x="30" y="150" width="100" height="40" as="geometry" />
        </mxCell>
        <mxCell id="AUQmLrCDsajhmI_0LVjG-18" style="edgeStyle=orthogonalEdgeStyle;rounded=0;orthogonalLoop=1;jettySize=auto;html=1;exitX=0.5;exitY=1;exitDx=0;exitDy=0;entryX=1;entryY=0.5;entryDx=0;entryDy=0;" edge="1" parent="1" source="AUQmLrCDsajhmI_0LVjG-12" target="AUQmLrCDsajhmI_0LVjG-17">
          <mxGeometry relative="1" as="geometry" />
        </mxCell>
        <mxCell id="AUQmLrCDsajhmI_0LVjG-12" value="&lt;font style=&quot;font-size: 18px;&quot;&gt;初始化open_set/care_from/g_score&lt;/font&gt;" style="rounded=0;whiteSpace=wrap;html=1;" vertex="1" parent="1">
          <mxGeometry x="850" y="140" width="240" height="60" as="geometry" />
        </mxCell>
        <mxCell id="AUQmLrCDsajhmI_0LVjG-20" style="edgeStyle=orthogonalEdgeStyle;rounded=0;orthogonalLoop=1;jettySize=auto;html=1;exitX=0;exitY=0.5;exitDx=0;exitDy=0;" edge="1" parent="1" source="AUQmLrCDsajhmI_0LVjG-17" target="AUQmLrCDsajhmI_0LVjG-19">
          <mxGeometry relative="1" as="geometry" />
        </mxCell>
        <mxCell id="AUQmLrCDsajhmI_0LVjG-17" value="&lt;span style=&quot;font-size: 18px;&quot;&gt;取出最小节点&lt;/span&gt;" style="rounded=0;whiteSpace=wrap;html=1;" vertex="1" parent="1">
          <mxGeometry x="273" y="290" width="138" height="50" as="geometry" />
        </mxCell>
        <mxCell id="AUQmLrCDsajhmI_0LVjG-22" style="edgeStyle=orthogonalEdgeStyle;rounded=0;orthogonalLoop=1;jettySize=auto;html=1;exitX=1;exitY=0.5;exitDx=0;exitDy=0;entryX=0;entryY=0.5;entryDx=0;entryDy=0;" edge="1" parent="1" source="AUQmLrCDsajhmI_0LVjG-19" target="AUQmLrCDsajhmI_0LVjG-21">
          <mxGeometry relative="1" as="geometry" />
        </mxCell>
        <mxCell id="AUQmLrCDsajhmI_0LVjG-23" value="&lt;font style=&quot;font-size: 16px;&quot;&gt;否&lt;/font&gt;" style="edgeLabel;html=1;align=center;verticalAlign=middle;resizable=0;points=[];" vertex="1" connectable="0" parent="AUQmLrCDsajhmI_0LVjG-22">
          <mxGeometry x="-0.0167" y="1" relative="1" as="geometry">
            <mxPoint as="offset" />
          </mxGeometry>
        </mxCell>
        <mxCell id="AUQmLrCDsajhmI_0LVjG-26" style="edgeStyle=orthogonalEdgeStyle;rounded=0;orthogonalLoop=1;jettySize=auto;html=1;exitX=0.5;exitY=1;exitDx=0;exitDy=0;" edge="1" parent="1" source="AUQmLrCDsajhmI_0LVjG-19" target="AUQmLrCDsajhmI_0LVjG-24">
          <mxGeometry relative="1" as="geometry" />
        </mxCell>
        <mxCell id="AUQmLrCDsajhmI_0LVjG-32" value="&lt;font style=&quot;font-size: 16px;&quot;&gt;是&lt;/font&gt;" style="edgeLabel;html=1;align=center;verticalAlign=middle;resizable=0;points=[];" vertex="1" connectable="0" parent="AUQmLrCDsajhmI_0LVjG-26">
          <mxGeometry x="-0.1" relative="1" as="geometry">
            <mxPoint as="offset" />
          </mxGeometry>
        </mxCell>
        <mxCell id="AUQmLrCDsajhmI_0LVjG-19" value="&lt;span style=&quot;font-size: 18px;&quot;&gt;当前节点是目标？&lt;/span&gt;" style="rhombus;whiteSpace=wrap;html=1;" vertex="1" parent="1">
          <mxGeometry x="30" y="370" width="190" height="80" as="geometry" />
        </mxCell>
        <mxCell id="AUQmLrCDsajhmI_0LVjG-37" style="edgeStyle=orthogonalEdgeStyle;rounded=0;orthogonalLoop=1;jettySize=auto;html=1;exitX=0.5;exitY=1;exitDx=0;exitDy=0;entryX=0.5;entryY=0;entryDx=0;entryDy=0;" edge="1" parent="1" source="AUQmLrCDsajhmI_0LVjG-21" target="AUQmLrCDsajhmI_0LVjG-36">
          <mxGeometry relative="1" as="geometry" />
        </mxCell>
        <mxCell id="AUQmLrCDsajhmI_0LVjG-21" value="&lt;span style=&quot;font-size: 18px;&quot;&gt;获取邻居节点&lt;/span&gt;" style="rounded=0;whiteSpace=wrap;html=1;" vertex="1" parent="1">
          <mxGeometry x="340" y="385" width="138" height="50" as="geometry" />
        </mxCell>
        <mxCell id="AUQmLrCDsajhmI_0LVjG-27" style="edgeStyle=orthogonalEdgeStyle;rounded=0;orthogonalLoop=1;jettySize=auto;html=1;exitX=0.5;exitY=1;exitDx=0;exitDy=0;" edge="1" parent="1" source="AUQmLrCDsajhmI_0LVjG-24" target="AUQmLrCDsajhmI_0LVjG-25">
          <mxGeometry relative="1" as="geometry" />
        </mxCell>
        <mxCell id="AUQmLrCDsajhmI_0LVjG-24" value="&lt;span style=&quot;font-size: 18px;&quot;&gt;回溯路径&lt;/span&gt;" style="rounded=0;whiteSpace=wrap;html=1;" vertex="1" parent="1">
          <mxGeometry x="73" y="510" width="104" height="50" as="geometry" />
        </mxCell>
        <mxCell id="AUQmLrCDsajhmI_0LVjG-29" style="edgeStyle=orthogonalEdgeStyle;rounded=0;orthogonalLoop=1;jettySize=auto;html=1;exitX=0.5;exitY=1;exitDx=0;exitDy=0;" edge="1" parent="1" source="AUQmLrCDsajhmI_0LVjG-25" target="AUQmLrCDsajhmI_0LVjG-28">
          <mxGeometry relative="1" as="geometry" />
        </mxCell>
        <mxCell id="AUQmLrCDsajhmI_0LVjG-25" value="&lt;span style=&quot;font-size: 18px;&quot;&gt;返回路径&lt;/span&gt;" style="rounded=0;whiteSpace=wrap;html=1;" vertex="1" parent="1">
          <mxGeometry x="68" y="630" width="114" height="50" as="geometry" />
        </mxCell>
        <mxCell id="AUQmLrCDsajhmI_0LVjG-28" value="&lt;span style=&quot;font-size: 18px;&quot;&gt;结束&lt;/span&gt;" style="rounded=1;whiteSpace=wrap;html=1;" vertex="1" parent="1">
          <mxGeometry x="77" y="730" width="96" height="40" as="geometry" />
        </mxCell>
        <mxCell id="AUQmLrCDsajhmI_0LVjG-34" style="edgeStyle=orthogonalEdgeStyle;rounded=0;orthogonalLoop=1;jettySize=auto;html=1;exitX=0;exitY=0.5;exitDx=0;exitDy=0;entryX=0.5;entryY=1;entryDx=0;entryDy=0;" edge="1" parent="1" source="AUQmLrCDsajhmI_0LVjG-33" target="AUQmLrCDsajhmI_0LVjG-17">
          <mxGeometry relative="1" as="geometry" />
        </mxCell>
        <mxCell id="AUQmLrCDsajhmI_0LVjG-35" value="&lt;font style=&quot;font-size: 16px;&quot;&gt;否&lt;/font&gt;" style="edgeLabel;html=1;align=center;verticalAlign=middle;resizable=0;points=[];" vertex="1" connectable="0" parent="AUQmLrCDsajhmI_0LVjG-34">
          <mxGeometry x="-0.0705" y="1" relative="1" as="geometry">
            <mxPoint as="offset" />
          </mxGeometry>
        </mxCell>
        <mxCell id="AUQmLrCDsajhmI_0LVjG-39" style="edgeStyle=orthogonalEdgeStyle;rounded=0;orthogonalLoop=1;jettySize=auto;html=1;exitX=1;exitY=0.5;exitDx=0;exitDy=0;entryX=0;entryY=0.5;entryDx=0;entryDy=0;" edge="1" parent="1" source="AUQmLrCDsajhmI_0LVjG-33" target="AUQmLrCDsajhmI_0LVjG-6">
          <mxGeometry relative="1" as="geometry">
            <Array as="points">
              <mxPoint x="970" y="370" />
              <mxPoint x="970" y="835" />
              <mxPoint x="-110" y="835" />
              <mxPoint x="-110" y="170" />
            </Array>
          </mxGeometry>
        </mxCell>
        <mxCell id="AUQmLrCDsajhmI_0LVjG-40" value="&lt;font style=&quot;font-size: 16px;&quot;&gt;是&lt;/font&gt;" style="edgeLabel;html=1;align=center;verticalAlign=middle;resizable=0;points=[];" vertex="1" connectable="0" parent="AUQmLrCDsajhmI_0LVjG-39">
          <mxGeometry x="-0.0963" y="-2" relative="1" as="geometry">
            <mxPoint as="offset" />
          </mxGeometry>
        </mxCell>
        <mxCell id="AUQmLrCDsajhmI_0LVjG-33" value="&lt;span style=&quot;font-size: 18px;&quot;&gt;open_set为空？&lt;/span&gt;" style="rhombus;whiteSpace=wrap;html=1;" vertex="1" parent="1">
          <mxGeometry x="760" y="330" width="190" height="80" as="geometry" />
        </mxCell>
        <mxCell id="AUQmLrCDsajhmI_0LVjG-41" style="edgeStyle=orthogonalEdgeStyle;rounded=0;orthogonalLoop=1;jettySize=auto;html=1;exitX=0;exitY=0.5;exitDx=0;exitDy=0;" edge="1" parent="1" source="AUQmLrCDsajhmI_0LVjG-36" target="AUQmLrCDsajhmI_0LVjG-38">
          <mxGeometry relative="1" as="geometry" />
        </mxCell>
        <mxCell id="AUQmLrCDsajhmI_0LVjG-36" value="&lt;span style=&quot;font-size: 18px;&quot;&gt;遍历邻居&lt;/span&gt;" style="rounded=0;whiteSpace=wrap;html=1;" vertex="1" parent="1">
          <mxGeometry x="357" y="510" width="104" height="50" as="geometry" />
        </mxCell>
        <mxCell id="AUQmLrCDsajhmI_0LVjG-43" style="edgeStyle=orthogonalEdgeStyle;rounded=0;orthogonalLoop=1;jettySize=auto;html=1;exitX=0.5;exitY=1;exitDx=0;exitDy=0;entryX=0;entryY=0.5;entryDx=0;entryDy=0;" edge="1" parent="1" source="AUQmLrCDsajhmI_0LVjG-38" target="AUQmLrCDsajhmI_0LVjG-42">
          <mxGeometry relative="1" as="geometry" />
        </mxCell>
        <mxCell id="AUQmLrCDsajhmI_0LVjG-38" value="&lt;span style=&quot;font-size: 18px;&quot;&gt;计算tentative_g&lt;/span&gt;" style="rounded=0;whiteSpace=wrap;html=1;" vertex="1" parent="1">
          <mxGeometry x="219" y="640" width="138" height="30" as="geometry" />
        </mxCell>
        <mxCell id="AUQmLrCDsajhmI_0LVjG-44" style="edgeStyle=orthogonalEdgeStyle;rounded=0;orthogonalLoop=1;jettySize=auto;html=1;exitX=1;exitY=0.5;exitDx=0;exitDy=0;entryX=1;entryY=0.5;entryDx=0;entryDy=0;" edge="1" parent="1" source="AUQmLrCDsajhmI_0LVjG-42" target="AUQmLrCDsajhmI_0LVjG-36">
          <mxGeometry relative="1" as="geometry">
            <Array as="points">
              <mxPoint x="510" y="750" />
              <mxPoint x="510" y="535" />
            </Array>
          </mxGeometry>
        </mxCell>
        <mxCell id="AUQmLrCDsajhmI_0LVjG-46" value="&lt;font style=&quot;font-size: 16px;&quot;&gt;否&lt;/font&gt;" style="edgeLabel;html=1;align=center;verticalAlign=middle;resizable=0;points=[];" vertex="1" connectable="0" parent="AUQmLrCDsajhmI_0LVjG-44">
          <mxGeometry x="-0.0197" y="-1" relative="1" as="geometry">
            <mxPoint as="offset" />
          </mxGeometry>
        </mxCell>
        <mxCell id="AUQmLrCDsajhmI_0LVjG-48" style="edgeStyle=orthogonalEdgeStyle;rounded=0;orthogonalLoop=1;jettySize=auto;html=1;exitX=0.5;exitY=1;exitDx=0;exitDy=0;entryX=0.5;entryY=1;entryDx=0;entryDy=0;" edge="1" parent="1" source="AUQmLrCDsajhmI_0LVjG-42" target="AUQmLrCDsajhmI_0LVjG-47">
          <mxGeometry relative="1" as="geometry" />
        </mxCell>
        <mxCell id="AUQmLrCDsajhmI_0LVjG-50" value="&lt;font style=&quot;font-size: 16px;&quot;&gt;是&lt;/font&gt;" style="edgeLabel;html=1;align=center;verticalAlign=middle;resizable=0;points=[];" vertex="1" connectable="0" parent="AUQmLrCDsajhmI_0LVjG-48">
          <mxGeometry x="-0.1188" y="4" relative="1" as="geometry">
            <mxPoint x="-1" as="offset" />
          </mxGeometry>
        </mxCell>
        <mxCell id="AUQmLrCDsajhmI_0LVjG-42" value="&lt;span style=&quot;font-size: 18px;&quot;&gt;更优路径？&lt;/span&gt;" style="rhombus;whiteSpace=wrap;html=1;" vertex="1" parent="1">
          <mxGeometry x="348.5" y="710" width="121" height="80" as="geometry" />
        </mxCell>
        <mxCell id="AUQmLrCDsajhmI_0LVjG-54" style="edgeStyle=orthogonalEdgeStyle;rounded=0;orthogonalLoop=1;jettySize=auto;html=1;exitX=0.5;exitY=0;exitDx=0;exitDy=0;entryX=0.5;entryY=1;entryDx=0;entryDy=0;" edge="1" parent="1" source="AUQmLrCDsajhmI_0LVjG-47" target="AUQmLrCDsajhmI_0LVjG-51">
          <mxGeometry relative="1" as="geometry" />
        </mxCell>
        <mxCell id="AUQmLrCDsajhmI_0LVjG-47" value="&lt;span style=&quot;font-size: 18px;&quot;&gt;更新care_from/g_score&lt;/span&gt;" style="rounded=0;whiteSpace=wrap;html=1;" vertex="1" parent="1">
          <mxGeometry x="752" y="696" width="206" height="30" as="geometry" />
        </mxCell>
        <mxCell id="AUQmLrCDsajhmI_0LVjG-55" style="edgeStyle=orthogonalEdgeStyle;rounded=0;orthogonalLoop=1;jettySize=auto;html=1;exitX=0.5;exitY=0;exitDx=0;exitDy=0;entryX=0.5;entryY=1;entryDx=0;entryDy=0;" edge="1" parent="1" source="AUQmLrCDsajhmI_0LVjG-51" target="AUQmLrCDsajhmI_0LVjG-33">
          <mxGeometry relative="1" as="geometry" />
        </mxCell>
        <mxCell id="AUQmLrCDsajhmI_0LVjG-51" value="&lt;span style=&quot;font-size: 18px;&quot;&gt;计算f_score并入队&lt;/span&gt;" style="rounded=0;whiteSpace=wrap;html=1;" vertex="1" parent="1">
          <mxGeometry x="772.5" y="549" width="165" height="30" as="geometry" />
        </mxCell>
      </root>
    </mxGraphModel>
  </diagram>
</mxfile>
